<svg viewBox="0 0 24 24" xmlns="http://www.w3.org/2000/svg"><path d="m.5 9.5a9 9 0 1 0 18 0 9 9 0 1 0 -18 0" fill="#f5247d"/><path d="m9.5 4a9 9 0 0 1 8.827 7.25 9 9 0 1 0 -17.654 0 9 9 0 0 1 8.827-7.25z" fill="#f7559a"/><path d="m23.5 23.5-4.5-4.5" fill="none" stroke="#0c056d" stroke-linecap="round" stroke-linejoin="round"/><path d="m17.047 21.4a.5.5 0 0 0 .922.006l1.031-2.406 2.406-1.031a.5.5 0 0 0 -.006-.922l-6.29-2.59a.5.5 0 0 0 -.653.653z" fill="#fff"/><path d="m14.566 14.566a.5.5 0 0 0 -.109.544l2.59 6.29a.5.5 0 0 0 .922.006l1.031-2.406z" fill="#f7559a"/><g stroke="#0c056d" stroke-linecap="round" stroke-linejoin="round"><path d="m17.047 21.4a.5.5 0 0 0 .922.006l1.031-2.406 2.406-1.031a.5.5 0 0 0 -.006-.922l-6.29-2.59a.5.5 0 0 0 -.653.653z" fill="none"/><g fill="#f5247d"><path d="m10 13.5a1 1 0 1 0 2 0 1 1 0 1 0 -2 0"/><path d="m6 13.5a1 1 0 1 0 2 0 1 1 0 1 0 -2 0"/><path d="m14 4-2.5 7.5h-5l-1.5-5h8.167"/></g><path d="m12.771 17.887a8.994 8.994 0 1 1 4.958-4.737" fill="none"/></g></svg>