<svg viewBox="0 0 24 24" xmlns="http://www.w3.org/2000/svg"><path d="m.5 18.5a1 1 0 0 0 1 1h12.5l4.5 4v-4h4a1 1 0 0 0 1-1v-6a1 1 0 0 0 -1-1h-21a1 1 0 0 0 -1 1z" fill="#f7559a"/><path d="m14 11.5h-12.5a1 1 0 0 0 -1 1v6a1 1 0 0 0 1 1h4.5z" fill="#fff"/><path d="m23.5 7.5a1 1 0 0 1 -1 1h-12.5l-4.5 4v-4h-4a1 1 0 0 1 -1-1v-6a1 1 0 0 1 1-1h21a1 1 0 0 1 1 1z" fill="#f5247d"/><path d="m13.5.5h-12a1 1 0 0 0 -1 1v6a1 1 0 0 0 1 1h4z" fill="#f7559a"/><g fill="none" stroke="#0c056d" stroke-linecap="round" stroke-linejoin="round"><path d="m23.5 7.5a1 1 0 0 1 -1 1h-12.5l-4.5 4v-4h-4a1 1 0 0 1 -1-1v-6a1 1 0 0 1 1-1h21a1 1 0 0 1 1 1z"/><path d="m3 11.5h-1.5a1 1 0 0 0 -1 1v6a1 1 0 0 0 1 1h12.5l4.5 4v-4h4a1 1 0 0 0 1-1v-6a1 1 0 0 0 -1-1h-12"/></g></svg>